# This file uses centimeters as units for non-parametric coordinates.

mtllib Gem_3.mtl
g default
v 0.700000 1.150000 0.700000
v 0.000000 1.150000 1.000000
v -0.700000 1.150000 0.700000
v -1.000000 1.150000 -0.000000
v -0.700000 1.150000 -0.700000
v 0.000000 1.150000 -1.000000
v 0.700000 1.150000 -0.700000
v 1.000000 1.150000 -0.000000
v 0.000000 -0.000000 0.000000
v 0.200000 1.500000 0.500000
v 0.500000 1.500000 0.199848
v 0.500000 1.500000 -0.200000
v 0.200000 1.500000 -0.500000
v -0.200000 1.500000 -0.500000
v -0.500000 1.500000 -0.200000
v -0.500000 1.500000 0.200000
v -0.200000 1.500000 0.500000
vt 0.676777 0.073223
vt 0.500000 0.000000
vt 0.323223 0.073223
vt 0.250000 0.250000
vt 0.323223 0.426777
vt 0.500000 0.500000
vt 0.676777 0.426777
vt 0.750000 0.250000
vt 0.250000 0.500000
vt 0.312500 0.500000
vt 0.375000 0.500000
vt 0.437500 0.500000
vt 0.500000 0.500000
vt 0.562500 0.500000
vt 0.625000 0.500000
vt 0.687500 0.500000
vt 0.750000 0.500000
vt 0.500000 1.000000
vt 0.589665 0.037140
vt 0.714125 0.163390
vt 0.713954 0.337022
vt 0.588972 0.463147
vt 0.412006 0.463552
vt 0.286553 0.338248
vt 0.287261 0.160043
vt 0.412236 0.036353
vn 0.000000 1.000000 -0.000000
vn 0.000000 1.000000 -0.000000
vn 0.000000 1.000000 -0.000000
vn 0.000000 1.000000 -0.000000
vn 0.000000 1.000000 -0.000000
vn 0.000000 1.000000 -0.000000
vn 0.000000 1.000000 -0.000000
vn 0.000000 1.000000 -0.000000
vn 0.307711 -0.624341 0.717992
vn 0.307711 -0.624341 0.717992
vn 0.307711 -0.624341 0.717992
vn -0.307711 -0.624341 0.717992
vn -0.307711 -0.624341 0.717992
vn -0.307711 -0.624341 0.717992
vn -0.717992 -0.624341 0.307711
vn -0.717992 -0.624341 0.307711
vn -0.717992 -0.624341 0.307711
vn -0.717992 -0.624341 -0.307711
vn -0.717992 -0.624341 -0.307711
vn -0.717992 -0.624341 -0.307711
vn -0.307711 -0.624341 -0.717992
vn -0.307711 -0.624341 -0.717992
vn -0.307711 -0.624341 -0.717992
vn 0.307711 -0.624341 -0.717992
vn 0.307711 -0.624341 -0.717992
vn 0.307711 -0.624341 -0.717992
vn 0.717992 -0.624341 -0.307711
vn 0.717992 -0.624341 -0.307711
vn 0.717992 -0.624341 -0.307711
vn 0.717992 -0.624341 0.307711
vn 0.717992 -0.624341 0.307711
vn 0.717992 -0.624341 0.307711
vn 0.238056 0.795085 0.557826
vn 0.449383 0.772093 0.449364
vn 0.557864 0.795083 0.237972
vn -0.000000 0.774242 0.632890
vn 0.632874 0.774254 0.000026
vn 0.557875 0.795058 -0.238031
vn 0.449400 0.772062 -0.449400
vn 0.238007 0.795063 -0.557878
vn 0.000000 0.774242 -0.632890
vn -0.238007 0.795063 -0.557878
vn -0.449400 0.772062 -0.449400
vn -0.557878 0.795063 -0.238007
vn -0.632890 0.774242 -0.000000
vn -0.557878 0.795063 0.238007
vn -0.449400 0.772062 0.449400
vn -0.238007 0.795063 0.557878
s off
g pCone1
usemtl initialShadingGroup
f 10/19/1 11/20/2 12/21/3 13/22/4 14/23/5 15/24/6 16/25/7 17/26/8
f 1/9/9 2/10/10 9/18/11
f 2/10/12 3/11/13 9/18/14
f 3/11/15 4/12/16 9/18/17
f 4/12/18 5/13/19 9/18/20
f 5/13/21 6/14/22 9/18/23
f 6/14/24 7/15/25 9/18/26
f 7/15/27 8/16/28 9/18/29
f 8/16/30 1/17/31 9/18/32
s 1
f 10/19/33 1/1/34 11/20/35
f 2/2/36 1/1/34 10/19/33
f 11/20/35 8/8/37 12/21/38
f 1/1/34 8/8/37 11/20/35
f 12/21/38 7/7/39 13/22/40
f 8/8/37 7/7/39 12/21/38
f 13/22/40 6/6/41 14/23/42
f 7/7/39 6/6/41 13/22/40
f 14/23/42 5/5/43 15/24/44
f 6/6/41 5/5/43 14/23/42
f 15/24/44 4/4/45 16/25/46
f 5/5/43 4/4/45 15/24/44
f 16/25/46 3/3/47 17/26/48
f 4/4/45 3/3/47 16/25/46
f 17/26/48 2/2/36 10/19/33
f 3/3/47 2/2/36 17/26/48
